<?xml version="1.0" standalone="no"?>
<!DOCTYPE svg PUBLIC "-//W3C//DTD SVG 20010904//EN"
 "http://www.w3.org/TR/2001/REC-SVG-20010904/DTD/svg10.dtd">
<svg version="1.0" xmlns="http://www.w3.org/2000/svg"
 width="700.000000pt" height="700.000000pt" viewBox="0 0 700.000000 700.000000"
 preserveAspectRatio="xMidYMid meet">
<metadata>
Created by potrace 1.14, written by Peter Selinger 2001-2017
</metadata>
<g transform="translate(0.000000,700.000000) scale(0.100000,-0.100000)"
fill="#000000" stroke="none">
<path d="M3367 6754 c-1 -1 -49 -4 -107 -8 -105 -6 -163 -12 -210 -21 -14 -3
-42 -8 -64 -11 -21 -3 -48 -8 -60 -10 -11 -3 -32 -7 -46 -10 -307 -62 -654
-211 -950 -410 -511 -342 -887 -850 -1059 -1433 -17 -57 -33 -114 -35 -125 -2
-12 -11 -55 -20 -96 -8 -41 -18 -97 -22 -125 -3 -27 -8 -58 -10 -67 -8 -45
-18 -214 -17 -303 1 -365 67 -695 208 -1034 37 -90 121 -256 161 -319 19 -29
34 -54 34 -57 0 -6 136 -200 160 -229 10 -11 44 -52 76 -91 216 -260 572 -585
914 -833 47 -34 90 -65 95 -70 6 -4 39 -28 75 -52 36 -25 67 -48 70 -51 3 -3
10 -8 15 -10 6 -2 70 -44 143 -92 73 -48 144 -93 157 -99 14 -6 25 -15 25 -20
0 -4 5 -8 10 -8 6 0 34 -15 63 -33 29 -19 72 -45 97 -59 177 -100 310 -173
401 -220 131 -69 510 -248 523 -248 3 0 34 -13 68 -28 35 -16 79 -34 98 -41
19 -8 49 -19 65 -26 69 -30 302 -109 420 -144 287 -83 501 -120 684 -116 233
6 338 60 468 241 24 35 102 184 119 229 6 17 26 68 44 115 17 47 33 92 35 100
2 8 17 63 33 122 25 88 49 187 78 323 8 38 44 250 49 290 2 21 9 73 15 115 5
41 12 95 14 120 3 25 8 72 12 105 45 425 49 1092 8 1524 -3 30 -7 79 -9 110
-2 31 -11 113 -20 181 -9 69 -18 139 -20 156 -4 31 -30 191 -40 249 -77 434
-244 930 -403 1195 -12 19 -28 47 -37 62 -30 54 -138 204 -210 293 -103 126
-226 251 -374 378 -42 37 -220 163 -291 207 -64 39 -292 156 -365 187 -103 43
-300 105 -405 128 -175 39 -272 53 -405 61 -105 6 -254 11 -258 8z"/>
</g>
</svg>
