<svg width="40" height="40" viewBox="0 0 40 40" fill="none" xmlns="http://www.w3.org/2000/svg">
<path d="M0 20C0 8.95431 8.95431 0 20 0C31.0457 0 40 8.95431 40 20C40 31.0457 31.0457 40 20 40C8.95431 40 0 31.0457 0 20Z" fill="white"/>
<path d="M10.0861 29.9927C11.3809 31.2874 13.1031 32 14.9346 32C16.766 32 18.4883 31.2874 19.783 29.9927L23.8158 25.9599C24.0614 25.7143 24.0614 25.314 23.8158 25.0654L21.293 22.5427L19.0674 24.7682L19.7679 25.4687L17.5119 27.7246C16.0868 29.1497 13.7763 29.1497 12.3512 27.7246L12.2754 27.6488C10.8502 26.2237 10.8502 23.9132 12.2754 22.488L14.5313 20.2321L15.2317 20.9326L17.4573 18.707L14.9346 16.1842C14.689 15.9386 14.2887 15.9386 14.0401 16.1842L10.0073 20.217C8.71256 21.5117 8 23.234 8 25.0654C8 26.8968 8.71256 28.6191 10.0073 29.9139L10.0861 29.9927Z" fill="black"/>
<path d="M29.9245 9.99708C28.6363 8.70893 26.9228 8 25.1007 8C23.2786 8 21.5651 8.70893 20.277 9.99708L16.1833 14.0938C15.9389 14.3382 15.9389 14.7364 16.1833 14.9837L18.6932 17.4937L20.992 15.1949L20.292 14.495L22.5365 12.2506C23.9544 10.8327 26.2531 10.8327 27.671 12.2506L27.7464 12.326C29.1643 13.7439 29.1643 16.0426 27.7464 17.4605L25.502 19.7049L24.8051 19.0081L22.5063 21.3068L25.0163 23.8167C25.2606 24.0611 25.6588 24.0611 25.9062 23.8167L30.0029 19.72C31.2911 18.4319 32 16.7184 32 14.8963C32 13.0741 31.2911 11.3606 30.0029 10.0725L29.9245 9.99708Z" fill="black"/>
<path d="M25.4953 14.5043C25.1568 14.1658 24.7182 14 24.2761 14C23.834 14 23.3919 14.1693 23.0569 14.5043L22.2901 15.2677L19.6582 17.8998L17.8036 19.7547L15.2684 22.2901L14.5051 23.0535C13.8316 23.7271 13.8316 24.8221 14.5051 25.4956C14.8436 25.8342 15.2822 26 15.7243 26C16.1664 26 16.6085 25.8307 16.9436 25.4956L17.7069 24.7323L20.242 22.1969L22.0967 20.342L24.7285 17.7099L25.4919 16.9465C26.1688 16.2729 26.1688 15.1779 25.4953 14.5043Z" fill="black"/>
</svg>
