<svg width="40" height="40" viewBox="0 0 40 40" fill="none" xmlns="http://www.w3.org/2000/svg">
<path d="M0 20C0 8.95431 8.95431 0 20 0C31.0457 0 40 8.95431 40 20C40 31.0457 31.0457 40 20 40C8.95431 40 0 31.0457 0 20Z" fill="white"/>
<path d="M20.0039 8C14.994 8 13.5288 8.00517 13.244 8.0288C12.2159 8.11429 11.5761 8.27621 10.8792 8.62331C10.342 8.89011 9.91843 9.19936 9.50035 9.63288C8.73896 10.4235 8.27751 11.3961 8.11046 12.5523C8.02925 13.1135 8.00562 13.228 8.00082 16.095C7.99897 17.0506 8.00082 18.3083 8.00082 19.9953C8.00082 25.0025 8.00636 26.4666 8.03035 26.7509C8.11341 27.7516 8.27031 28.3812 8.60255 29.0699C9.23751 30.3882 10.4502 31.3778 11.8789 31.7471C12.3735 31.8745 12.9199 31.9446 13.6213 31.9778C13.9185 31.9908 16.9474 32 19.9783 32C23.0091 32 26.0399 31.9963 26.3297 31.9815C27.1418 31.9433 27.6134 31.88 28.1349 31.7452C29.5728 31.3741 30.7633 30.3993 31.4112 29.0625C31.737 28.3905 31.9022 27.7369 31.9769 26.7884C31.9932 26.5816 32 23.2847 32 19.9922C32 16.6991 31.9926 13.4082 31.9764 13.2014C31.9007 12.2377 31.7355 11.5896 31.3992 10.9046C31.1232 10.3439 30.8168 9.92515 30.372 9.49699C29.5781 8.73852 28.6072 8.27695 27.4503 8.11004C26.8897 8.02899 26.778 8.00499 23.9096 8H20.0039Z" fill="url(#paint0_radial_3_38)"/>
<path d="M20.0039 8C14.994 8 13.5288 8.00517 13.244 8.0288C12.2159 8.11429 11.5761 8.27621 10.8792 8.62331C10.342 8.89011 9.91843 9.19936 9.50035 9.63288C8.73896 10.4235 8.27751 11.3961 8.11046 12.5523C8.02925 13.1135 8.00562 13.228 8.00082 16.095C7.99897 17.0506 8.00082 18.3083 8.00082 19.9953C8.00082 25.0025 8.00636 26.4666 8.03035 26.7509C8.11341 27.7516 8.27031 28.3812 8.60255 29.0699C9.23751 30.3882 10.4502 31.3778 11.8789 31.7471C12.3735 31.8745 12.9199 31.9446 13.6213 31.9778C13.9185 31.9908 16.9474 32 19.9783 32C23.0091 32 26.0399 31.9963 26.3297 31.9815C27.1418 31.9433 27.6134 31.88 28.1349 31.7452C29.5728 31.3741 30.7633 30.3993 31.4112 29.0625C31.737 28.3905 31.9022 27.7369 31.9769 26.7884C31.9932 26.5816 32 23.2847 32 19.9922C32 16.6991 31.9926 13.4082 31.9764 13.2014C31.9007 12.2377 31.7355 11.5896 31.3992 10.9046C31.1232 10.3439 30.8168 9.92515 30.372 9.49699C29.5781 8.73852 28.6072 8.27695 27.4503 8.11004C26.8897 8.02899 26.778 8.00499 23.9096 8H20.0039Z" fill="url(#paint1_radial_3_38)"/>
<path d="M20.0008 11C17.5566 11 17.2498 11.0107 16.2898 11.0544C15.3317 11.0983 14.6777 11.2499 14.1054 11.4725C13.5135 11.7024 13.0113 12.0099 12.5111 12.5103C12.0104 13.0106 11.7029 13.5127 11.4723 14.1044C11.2492 14.6769 11.0973 15.3311 11.0542 16.2888C11.0113 17.2488 11 17.5557 11 20C11 22.4443 11.0109 22.7501 11.0544 23.7101C11.0984 24.6682 11.2501 25.3222 11.4725 25.8944C11.7026 26.4864 12.0101 26.9885 12.5105 27.4888C13.0106 27.9894 13.5127 28.2976 14.1043 28.5275C14.6769 28.7501 15.3311 28.9018 16.2891 28.9456C17.2491 28.9893 17.5556 29 19.9997 29C22.4442 29 22.75 28.9893 23.71 28.9456C24.6681 28.9018 25.3229 28.7501 25.8955 28.5275C26.4873 28.2976 26.9887 27.9894 27.4887 27.4888C27.9894 26.9885 28.2969 26.4864 28.5275 25.8946C28.7487 25.3222 28.9006 24.668 28.9456 23.7103C28.9888 22.7503 29 22.4443 29 20C29 17.5557 28.9888 17.249 28.9456 16.289C28.9006 15.3309 28.7487 14.6769 28.5275 14.1046C28.2969 13.5127 27.9894 13.0106 27.4887 12.5103C26.9881 12.0097 26.4875 11.7022 25.895 11.4725C25.3212 11.2499 24.6668 11.0983 23.7087 11.0544C22.7487 11.0107 22.4431 11 19.998 11H20.0008ZM19.1935 12.6219C19.4331 12.6215 19.7005 12.6219 20.0008 12.6219C22.4039 12.6219 22.6887 12.6305 23.6376 12.6736C24.5151 12.7138 24.9914 12.8604 25.3086 12.9836C25.7287 13.1467 26.0281 13.3417 26.3429 13.6567C26.6579 13.9717 26.8529 14.2717 27.0164 14.6917C27.1396 15.0086 27.2864 15.4848 27.3264 16.3623C27.3695 17.3111 27.3789 17.5961 27.3789 19.9979C27.3789 22.3998 27.3695 22.6848 27.3264 23.6336C27.2862 24.5111 27.1396 24.9873 27.0164 25.3042C26.8533 25.7242 26.6579 26.0233 26.3429 26.3381C26.0279 26.6531 25.7288 26.8481 25.3086 27.0112C24.9918 27.1349 24.5151 27.2812 23.6376 27.3213C22.6889 27.3644 22.4039 27.3738 20.0008 27.3738C17.5976 27.3738 17.3128 27.3644 16.3641 27.3213C15.4865 27.2808 15.0103 27.1342 14.6929 27.011C14.2728 26.8479 13.9728 26.6529 13.6578 26.3379C13.3428 26.0229 13.1478 25.7236 12.9843 25.3034C12.8611 24.9866 12.7143 24.5103 12.6744 23.6328C12.6313 22.6841 12.6226 22.3991 12.6226 19.9957C12.6226 17.5923 12.6313 17.3088 12.6744 16.3601C12.7145 15.4826 12.8611 15.0063 12.9843 14.6891C13.1475 14.2691 13.3428 13.9691 13.6578 13.6541C13.9728 13.3391 14.2728 13.1441 14.6929 12.9806C15.0101 12.8568 15.4865 12.7106 16.3641 12.6703C17.1943 12.6328 17.5161 12.6215 19.1935 12.6196V12.6219ZM24.805 14.1162C24.2088 14.1162 23.725 14.5994 23.725 15.1959C23.725 15.7921 24.2088 16.2759 24.805 16.2759C25.4013 16.2759 25.885 15.7921 25.885 15.1959C25.885 14.5996 25.4013 14.1159 24.805 14.1159V14.1162ZM20.0008 15.3781C17.4484 15.3781 15.3789 17.4476 15.3789 20C15.3789 22.5524 17.4484 24.6209 20.0008 24.6209C22.5533 24.6209 24.622 22.5524 24.622 20C24.622 17.4476 22.5531 15.3781 20.0007 15.3781H20.0008ZM20.0008 17C21.6576 17 23.0009 18.3431 23.0009 20C23.0009 21.6567 21.6576 23 20.0008 23C18.3439 23 17.0008 21.6567 17.0008 20C17.0008 18.3431 18.3439 17 20.0008 17Z" fill="white"/>
<defs>
<radialGradient id="paint0_radial_3_38" cx="0" cy="0" r="1" gradientUnits="userSpaceOnUse" gradientTransform="translate(14.375 33.8485) rotate(-90) scale(23.7858 22.1226)">
<stop stop-color="#FFDD55"/>
<stop offset="0.1" stop-color="#FFDD55"/>
<stop offset="0.5" stop-color="#FF543E"/>
<stop offset="1" stop-color="#C837AB"/>
</radialGradient>
<radialGradient id="paint1_radial_3_38" cx="0" cy="0" r="1" gradientUnits="userSpaceOnUse" gradientTransform="translate(3.97987 9.72892) rotate(78.6806) scale(10.6323 43.827)">
<stop stop-color="#3771C8"/>
<stop offset="0.128" stop-color="#3771C8"/>
<stop offset="1" stop-color="#6600FF" stop-opacity="0"/>
</radialGradient>
</defs>
</svg>
