<svg width="40" height="40" viewBox="0 0 40 40" fill="none" xmlns="http://www.w3.org/2000/svg">
<path d="M0 20C0 8.95431 8.95431 0 20 0C31.0457 0 40 8.95431 40 20C40 31.0457 31.0457 40 20 40C8.95431 40 0 31.0457 0 20Z" fill="white"/>
<path fill-rule="evenodd" clip-rule="evenodd" d="M32 12.3691C31.1156 12.7695 30.1668 13.0413 29.1714 13.1625C30.1883 12.5381 30.9688 11.5464 31.334 10.3673C30.3816 10.9477 29.329 11.3664 28.2083 11.5941C27.3096 10.6134 26.0313 10 24.6135 10C21.8959 10 19.6903 12.2626 19.6903 15.0505C19.6903 15.4472 19.7333 15.8329 19.8192 16.2002C15.7267 15.9908 12.0997 13.978 9.67209 10.9219C9.24959 11.6676 9.00612 12.5344 9.00612 13.4601C9.00612 15.2121 9.87617 16.7585 11.1974 17.6621C10.3918 17.6364 9.6327 17.4086 8.96673 17.0303C8.96673 17.0523 8.96673 17.0707 8.96673 17.0927C8.96673 19.539 10.6639 21.5813 12.916 22.0441C12.5043 22.1579 12.0674 22.2204 11.6199 22.2204C11.3012 22.2204 10.9933 22.1873 10.6925 22.1286C11.3191 24.1341 13.138 25.596 15.2899 25.6364C13.6035 26.9917 11.4838 27.7998 9.1744 27.7998C8.77697 27.7998 8.38669 27.7741 8 27.73C10.1769 29.1625 12.7656 30 15.5477 30C24.6027 30 29.5545 22.3049 29.5545 15.6309C29.5545 15.4105 29.5509 15.1938 29.5402 14.977C30.5034 14.2645 31.3376 13.3756 31.9964 12.3618L32 12.3691Z" fill="#41ABE1"/>
</svg>
