<svg width="40" height="40" viewBox="0 0 40 40" fill="none" xmlns="http://www.w3.org/2000/svg">
<path d="M0 20C0 8.95431 8.95431 0 20 0C31.0457 0 40 8.95431 40 20C40 31.0457 31.0457 40 20 40C8.95431 40 0 31.0457 0 20Z" fill="white"/>
<path fill-rule="evenodd" clip-rule="evenodd" d="M16.32 8H23.68C30.4 8 32 9.6 32 16.32V23.68C32 30.4 30.4 32 23.68 32H16.32C9.6 32 8 30.4 8 23.68V16.32C8 9.6 9.6 8 16.32 8Z" fill="#2787F5"/>
<path fill-rule="evenodd" clip-rule="evenodd" d="M27.6543 16.2683C27.7654 15.8975 27.6543 15.625 27.125 15.625H25.375C24.9301 15.625 24.7249 15.8604 24.6137 16.1199C24.6137 16.1199 23.7237 18.2891 22.463 19.6981C22.0552 20.106 21.8697 20.2358 21.6473 20.2358C21.536 20.2358 21.375 20.106 21.375 19.7352V16.2683C21.375 15.8233 21.2459 15.625 20.875 15.625H18.125C17.847 15.625 17.6797 15.8315 17.6797 16.0272C17.6797 16.4491 18.3101 16.5463 18.375 17.7329V20.31C18.375 20.875 18.273 20.9774 18.0505 20.9774C17.4573 20.9774 16.0141 18.7986 15.1583 16.3053C14.9905 15.8208 14.8223 15.625 14.375 15.625H12.625C12.125 15.625 12.025 15.8604 12.025 16.1199C12.025 16.5834 12.6183 18.8824 14.7875 21.923C16.2336 23.9994 18.271 25.125 20.125 25.125C21.2374 25.125 21.375 24.875 21.375 24.4444V22.875C21.375 22.375 21.4804 22.2752 21.8327 22.2752C22.0922 22.2752 22.5372 22.405 23.5754 23.4061C24.762 24.5927 24.9576 25.125 25.625 25.125H27.375C27.875 25.125 28.125 24.875 27.9808 24.3816C27.823 23.8899 27.2565 23.1765 26.5048 22.3308C26.0969 21.8488 25.4851 21.3297 25.2996 21.0701C25.0401 20.7364 25.1143 20.5881 25.2996 20.2914C25.2996 20.2914 27.4318 17.288 27.6543 16.2683Z" fill="white"/>
</svg>
