<svg width="40" height="40" viewBox="0 0 40 40" fill="none" xmlns="http://www.w3.org/2000/svg">
<path d="M0 20C0 8.95431 8.95431 0 20 0C31.0457 0 40 8.95431 40 20C40 31.0457 31.0457 40 20 40C8.95431 40 0 31.0457 0 20Z" fill="white"/>
<path d="M27 32H22.795V11.244H20.9174C17.4793 11.244 15.681 12.9582 15.681 15.5165C15.681 18.4176 16.924 19.7626 19.4893 21.4769L21.605 22.9011L15.5223 32H11L16.4744 23.8769C13.3273 21.6352 11.5554 19.4462 11.5554 15.7538C11.5554 11.1385 14.7818 8 20.8909 8H26.9736V32H27Z" fill="#FC3F1D"/>
</svg>
