<svg width="40" height="40" viewBox="0 0 40 40" fill="none" xmlns="http://www.w3.org/2000/svg">
<path d="M37.7959 40C39.0221 40 40 39.0066 40 37.7959V2.20411C40 0.977881 39.0066 0 37.7959 0H2.20411C0.993404 0 0 0.993403 0 2.20411V37.7959C0 39.0221 0.993404 40 2.20411 40H37.7959Z" fill="white"/>
<path d="M21.7852 32V21.053H25.3239L25.8521 16.7861H21.7852V14.0658C21.7852 12.8263 22.1127 11.9927 23.8239 11.9927H26V8.16453C25.6197 8.10969 24.331 8 22.831 8C19.6937 8 17.5493 9.98538 17.5493 13.638V16.7861H14V21.053H17.5493V32H21.7852Z" fill="#157DC3"/>
</svg>
