<svg width="40" height="40" viewBox="0 0 40 40" fill="none" xmlns="http://www.w3.org/2000/svg">
<path d="M0 20C0 8.95431 8.95431 0 20 0C31.0457 0 40 8.95431 40 20C40 31.0457 31.0457 40 20 40C8.95431 40 0 31.0457 0 20Z" fill="white"/>
<path d="M32 20.27C32 19.48 31.9285 18.73 31.8059 18H20.2606V22.51H26.871C26.5747 23.99 25.7063 25.24 24.4189 26.09V29.09H28.3627C30.6718 27 32 23.92 32 20.27Z" fill="#4285F4"/>
<path d="M20.2605 32C23.5709 32 26.3397 30.92 28.3627 29.09L24.4189 26.09C23.3154 26.81 21.9157 27.25 20.2605 27.25C17.0626 27.25 14.355 25.14 13.3844 22.29H9.31799V25.38C11.3308 29.3 15.4687 32 20.2605 32Z" fill="#34A853"/>
<path d="M13.3844 22.29C13.129 21.57 12.9962 20.8 12.9962 20C12.9962 19.2 13.1392 18.43 13.3844 17.71V14.62H9.31801C8.4802 16.24 8 18.06 8 20C8 21.94 8.4802 23.76 9.31801 25.38L13.3844 22.29Z" fill="#FBBC05"/>
<path d="M20.2605 12.75C22.069 12.75 23.6833 13.36 24.9604 14.55L28.4546 11.13C26.3397 9.19 23.5709 8 20.2605 8C15.4687 8 11.3308 10.7 9.31799 14.62L13.3844 17.71C14.355 14.86 17.0626 12.75 20.2605 12.75Z" fill="#EA4335"/>
</svg>
