<svg width="40" height="40" viewBox="0 0 40 40" fill="none" xmlns="http://www.w3.org/2000/svg">
<path d="M0 20C0 8.95431 8.95431 0 20 0C31.0457 0 40 8.95431 40 20C40 31.0457 31.0457 40 20 40C8.95431 40 0 31.0457 0 20Z" fill="white"/>
<path d="M32 28.4879C32 30.4277 30.4356 32 28.5059 32H11.4941C9.56436 32 8 30.4277 8 28.4879V11.5121C8 9.57238 9.56436 8 11.4941 8H28.5059C30.4356 8 32 9.57238 32 11.5121V28.4879Z" fill="#FAAB62"/>
<path d="M32 28.488C32 30.4276 30.4356 32 28.5058 32H11.4941C9.56434 32 8 30.4276 8 28.488V11.512C8 9.57237 9.56441 8 11.4941 8H28.5058C30.4356 8 32 9.57243 32 11.512V28.488Z" fill="#F7931E"/>
<path d="M20 12C17.7908 12 16 13.7909 16 15.9999C16 18.209 17.7908 20 20 20C22.2092 20 24 18.209 24 15.9999C24 13.7909 22.2092 12 20 12ZM20 17.6535C19.0868 17.6535 18.3465 16.9131 18.3465 16C18.3465 15.0868 19.0868 14.3465 20 14.3465C20.9132 14.3465 21.6535 15.0868 21.6535 16C21.6535 16.9131 20.9132 17.6535 20 17.6535Z" fill="white"/>
<path d="M21.5071 23.6893C23.2313 23.3362 24.2645 22.5155 24.3191 22.4715C24.8237 22.0648 24.9047 21.324 24.5001 20.8168C24.0955 20.3097 23.3586 20.2282 22.8539 20.6349C22.8433 20.6435 21.7413 21.4932 19.9281 21.4945C18.115 21.4932 16.9897 20.6435 16.9791 20.6349C16.4744 20.2282 15.7375 20.3097 15.3329 20.8168C14.9283 21.324 15.0093 22.0648 15.5139 22.4715C15.5693 22.5161 16.6451 23.3582 18.4176 23.703L15.9473 26.2979C15.4984 26.7658 15.5119 27.5109 15.9775 27.9622C16.2047 28.1824 16.4976 28.2919 16.7902 28.2919C17.097 28.2919 17.4035 28.1714 17.6333 27.9318L19.9282 25.4746L22.4549 27.9477C22.9127 28.4072 23.654 28.4064 24.1109 27.9464C24.5679 27.4864 24.5673 26.7412 24.1097 26.2819L21.5071 23.6893Z" fill="white"/>
<path d="M19.9282 21.4944C19.9251 21.4944 19.9311 21.4945 19.9282 21.4945C19.9252 21.4945 19.9312 21.4944 19.9282 21.4944Z" fill="white"/>
</svg>
